<?xml version="1.0" encoding="UTF-8"?>
<!--Generator: Apple Native CoreSVG 175.5-->
<!DOCTYPE svg
PUBLIC "-//W3C//DTD SVG 1.1//EN"
       "http://www.w3.org/Graphics/SVG/1.1/DTD/svg11.dtd">
<svg version="1.1" xmlns="http://www.w3.org/2000/svg" xmlns:xlink="http://www.w3.org/1999/xlink" width="3300" height="2200">
 <!--glyph: "uni1015E0.medium", point size: 100.0, font version: "18.0d10e1", template writer version: "90"-->
 <g id="Notes">
  <rect height="2200" id="artboard" style="fill:white;opacity:1" width="3300" x="0" y="0"/>
  <line style="fill:none;stroke:black;opacity:1;stroke-width:0.5;" x1="263" x2="3036" y1="292" y2="292"/>
  <text style="stroke:none;fill:black;font-family:sans-serif;font-size:13;font-weight:bold;" transform="matrix(1 0 0 1 263 322)">Weight/Scale Variations</text>
  <text style="stroke:none;fill:black;font-family:sans-serif;font-size:13;text-anchor:middle;" transform="matrix(1 0 0 1 559.711 322)">Ultralight</text>
  <text style="stroke:none;fill:black;font-family:sans-serif;font-size:13;text-anchor:middle;" transform="matrix(1 0 0 1 856.422 322)">Thin</text>
  <text style="stroke:none;fill:black;font-family:sans-serif;font-size:13;text-anchor:middle;" transform="matrix(1 0 0 1 1153.13 322)">Light</text>
  <text style="stroke:none;fill:black;font-family:sans-serif;font-size:13;text-anchor:middle;" transform="matrix(1 0 0 1 1449.84 322)">Regular</text>
  <text style="stroke:none;fill:black;font-family:sans-serif;font-size:13;text-anchor:middle;" transform="matrix(1 0 0 1 1746.56 322)">Medium</text>
  <text style="stroke:none;fill:black;font-family:sans-serif;font-size:13;text-anchor:middle;" transform="matrix(1 0 0 1 2043.27 322)">Semibold</text>
  <text style="stroke:none;fill:black;font-family:sans-serif;font-size:13;text-anchor:middle;" transform="matrix(1 0 0 1 2339.98 322)">Bold</text>
  <text style="stroke:none;fill:black;font-family:sans-serif;font-size:13;text-anchor:middle;" transform="matrix(1 0 0 1 2636.69 322)">Heavy</text>
  <text style="stroke:none;fill:black;font-family:sans-serif;font-size:13;text-anchor:middle;" transform="matrix(1 0 0 1 2933.4 322)">Black</text>
  <line style="fill:none;stroke:black;opacity:1;stroke-width:0.5;" x1="263" x2="3036" y1="1903" y2="1903"/>
  <g transform="matrix(1 0 0 1 263 1933)">
   <path d="M9.24805 0.830078C13.5547 0.830078 17.1387-2.74414 17.1387-7.05078C17.1387-11.3574 13.5449-14.9316 9.23828-14.9316C4.94141-14.9316 1.36719-11.3574 1.36719-7.05078C1.36719-2.74414 4.95117 0.830078 9.24805 0.830078ZM9.24805-0.654297C5.70312-0.654297 2.87109-3.49609 2.87109-7.05078C2.87109-10.6055 5.69336-13.4473 9.23828-13.4473C12.793-13.4473 15.6445-10.6055 15.6445-7.05078C15.6445-3.49609 12.8027-0.654297 9.24805-0.654297ZM5.6543-7.05078C5.6543-6.62109 5.95703-6.32812 6.40625-6.32812L8.50586-6.32812L8.50586-4.20898C8.50586-3.76953 8.79883-3.4668 9.22852-3.4668C9.67773-3.4668 9.9707-3.76953 9.9707-4.20898L9.9707-6.32812L12.0898-6.32812C12.5293-6.32812 12.832-6.62109 12.832-7.05078C12.832-7.49023 12.5293-7.79297 12.0898-7.79297L9.9707-7.79297L9.9707-9.90234C9.9707-10.3516 9.67773-10.6543 9.22852-10.6543C8.79883-10.6543 8.50586-10.3516 8.50586-9.90234L8.50586-7.79297L6.40625-7.79297C5.95703-7.79297 5.6543-7.49023 5.6543-7.05078Z"/>
  </g>
  <g transform="matrix(1 0 0 1 281.867 1933)">
   <path d="M11.709 2.91016C17.1582 2.91016 21.6699-1.61133 21.6699-7.05078C21.6699-12.5 17.1484-17.0117 11.6992-17.0117C6.25977-17.0117 1.74805-12.5 1.74805-7.05078C1.74805-1.61133 6.26953 2.91016 11.709 2.91016ZM11.709 1.25C7.09961 1.25 3.41797-2.44141 3.41797-7.05078C3.41797-11.6602 7.08984-15.3516 11.6992-15.3516C16.3086-15.3516 20.0098-11.6602 20.0098-7.05078C20.0098-2.44141 16.3184 1.25 11.709 1.25ZM7.17773-7.05078C7.17773-6.57227 7.50977-6.25 8.00781-6.25L10.8789-6.25L10.8789-3.36914C10.8789-2.88086 11.2109-2.53906 11.6895-2.53906C12.1777-2.53906 12.5195-2.87109 12.5195-3.36914L12.5195-6.25L15.4004-6.25C15.8887-6.25 16.2305-6.57227 16.2305-7.05078C16.2305-7.53906 15.8887-7.88086 15.4004-7.88086L12.5195-7.88086L12.5195-10.752C12.5195-11.25 12.1777-11.5918 11.6895-11.5918C11.2109-11.5918 10.8789-11.25 10.8789-10.752L10.8789-7.88086L8.00781-7.88086C7.50977-7.88086 7.17773-7.53906 7.17773-7.05078Z"/>
  </g>
  <g transform="matrix(1 0 0 1 305.646 1933)">
   <path d="M14.9707 5.66406C21.9336 5.66406 27.6953-0.0976562 27.6953-7.05078C27.6953-14.0137 21.9238-19.7754 14.9609-19.7754C8.00781-19.7754 2.25586-14.0137 2.25586-7.05078C2.25586-0.0976562 8.01758 5.66406 14.9707 5.66406ZM14.9707 3.84766C8.93555 3.84766 4.08203-1.01562 4.08203-7.05078C4.08203-13.0957 8.92578-17.9492 14.9609-17.9492C21.0059-17.9492 25.8691-13.0957 25.8691-7.05078C25.8691-1.01562 21.0156 3.84766 14.9707 3.84766ZM9.19922-7.05078C9.19922-6.5332 9.57031-6.17188 10.1172-6.17188L14.0625-6.17188L14.0625-2.2168C14.0625-1.67969 14.4336-1.29883 14.9512-1.29883C15.4883-1.29883 15.8594-1.66992 15.8594-2.2168L15.8594-6.17188L19.8145-6.17188C20.3516-6.17188 20.7324-6.5332 20.7324-7.05078C20.7324-7.59766 20.3613-7.96875 19.8145-7.96875L15.8594-7.96875L15.8594-11.9141C15.8594-12.4609 15.4883-12.8418 14.9512-12.8418C14.4336-12.8418 14.0625-12.4609 14.0625-11.9141L14.0625-7.96875L10.1172-7.96875C9.57031-7.96875 9.19922-7.59766 9.19922-7.05078Z"/>
  </g>
  <text style="stroke:none;fill:black;font-family:sans-serif;font-size:13;font-weight:bold;" transform="matrix(1 0 0 1 263 1953)">Design Variations</text>
  <text style="stroke:none;fill:black;font-family:sans-serif;font-size:13;" transform="matrix(1 0 0 1 263 1971)">Symbols are supported in up to nine weights and three scales.</text>
  <text style="stroke:none;fill:black;font-family:sans-serif;font-size:13;" transform="matrix(1 0 0 1 263 1989)">For optimal layout with text and other symbols, vertically align</text>
  <text style="stroke:none;fill:black;font-family:sans-serif;font-size:13;" transform="matrix(1 0 0 1 263 2007)">symbols with the adjacent text.</text>
  <line style="fill:none;stroke:#00AEEF;stroke-width:0.5;opacity:1.0;" x1="776" x2="776" y1="1919" y2="1933"/>
  <g transform="matrix(1 0 0 1 776 1933)">
   <path d="M3.31055 0.15625C3.82812 0.15625 4.08203-0.0390625 4.26758-0.585938L5.52734-4.0332L11.2891-4.0332L12.5488-0.585938C12.7344-0.0390625 12.9883 0.15625 13.4961 0.15625C14.0137 0.15625 14.3457-0.15625 14.3457-0.644531C14.3457-0.810547 14.3164-0.966797 14.2383-1.17188L9.6582-13.3691C9.43359-13.9648 9.0332-14.2676 8.4082-14.2676C7.80273-14.2676 7.39258-13.9746 7.17773-13.3789L2.59766-1.16211C2.51953-0.957031 2.49023-0.800781 2.49023-0.634766C2.49023-0.146484 2.80273 0.15625 3.31055 0.15625ZM6.00586-5.51758L8.37891-12.0898L8.42773-12.0898L10.8008-5.51758Z"/>
  </g>
  <line style="fill:none;stroke:#00AEEF;stroke-width:0.5;opacity:1.0;" x1="793.197" x2="793.197" y1="1919" y2="1933"/>
  <text style="stroke:none;fill:black;font-family:sans-serif;font-size:13;font-weight:bold;" transform="matrix(1 0 0 1 776 1953)">Margins</text>
  <text style="stroke:none;fill:black;font-family:sans-serif;font-size:13;" transform="matrix(1 0 0 1 776 1971)">Leading and trailing margins on the left and right side of each symbol</text>
  <text style="stroke:none;fill:black;font-family:sans-serif;font-size:13;" transform="matrix(1 0 0 1 776 1989)">can be adjusted by modifying the x-location of the margin guidelines.</text>
  <text style="stroke:none;fill:black;font-family:sans-serif;font-size:13;" transform="matrix(1 0 0 1 776 2007)">Modifications are automatically applied proportionally to all</text>
  <text style="stroke:none;fill:black;font-family:sans-serif;font-size:13;" transform="matrix(1 0 0 1 776 2025)">scales and weights.</text>
  <g transform="matrix(1 0 0 1 1289 1933)">
   <path d="M2.8418 1.86523L4.54102 3.57422C5.40039 4.44336 6.38672 4.38477 7.31445 3.35938L18.0078-8.42773L17.041-9.4043L6.42578 2.27539C6.07422 2.67578 5.74219 2.77344 5.27344 2.30469L4.10156 1.14258C3.63281 0.683594 3.74023 0.341797 4.14062-0.0195312L15.6152-10.8203L14.6387-11.7871L3.04688-0.898438C2.06055 0.0195312 1.98242 0.996094 2.8418 1.86523ZM9.25781-16.3281C8.83789-15.918 8.80859-15.3418 9.04297-14.9512C9.27734-14.5898 9.73633-14.3555 10.3809-14.5215C11.8457-14.8633 13.3691-14.9219 14.7949-13.9844L14.209-12.5293C13.8672-11.6992 14.043-11.1133 14.5801-10.5664L16.875-8.25195C17.3633-7.76367 17.7734-7.74414 18.3398-7.8418L19.4043-8.03711L20.0684-7.36328L20.0293-6.80664C19.9902-6.30859 20.1172-5.92773 20.6055-5.44922L21.3672-4.70703C21.8457-4.22852 22.4609-4.19922 22.9297-4.66797L25.8398-7.58789C26.3086-8.05664 26.2891-8.65234 25.8105-9.13086L25.0391-9.89258C24.5605-10.3711 24.1895-10.5273 23.7109-10.4883L23.1348-10.4395L22.4902-11.0742L22.7344-12.1973C22.8613-12.7637 22.7051-13.2031 22.1191-13.7891L19.9219-15.9766C16.582-19.2969 12.1484-19.2188 9.25781-16.3281ZM10.752-15.957C13.1836-17.7344 16.4746-17.4316 18.7012-15.2051L21.1328-12.793C21.3672-12.5586 21.4062-12.373 21.3379-12.0312L21.0156-10.5469L22.5195-9.0625L23.5059-9.12109C23.7598-9.13086 23.8379-9.11133 24.0332-8.91602L24.6094-8.33984L22.168-5.89844L21.5918-6.47461C21.3965-6.66992 21.3672-6.74805 21.377-7.01172L21.4453-7.98828L19.9512-9.47266L18.4277-9.21875C18.1055-9.15039 17.959-9.17969 17.7148-9.41406L15.7129-11.416C15.459-11.6504 15.4297-11.8164 15.5859-12.1875L16.4648-14.2773C14.9023-15.7324 12.8711-16.3574 10.8398-15.7617C10.6836-15.7227 10.625-15.8496 10.752-15.957Z"/>
  </g>
  <text style="stroke:none;fill:black;font-family:sans-serif;font-size:13;font-weight:bold;" transform="matrix(1 0 0 1 1289 1953)">Exporting</text>
  <text style="stroke:none;fill:black;font-family:sans-serif;font-size:13;" transform="matrix(1 0 0 1 1289 1971)">Symbols should be outlined when exporting to ensure the</text>
  <text style="stroke:none;fill:black;font-family:sans-serif;font-size:13;" transform="matrix(1 0 0 1 1289 1989)">design is preserved when submitting to Xcode.</text>
  <text id="template-version" style="stroke:none;fill:black;font-family:sans-serif;font-size:13;text-anchor:end;" transform="matrix(1 0 0 1 3036 1933)">Template v.4.0</text>
  <text style="stroke:none;fill:black;font-family:sans-serif;font-size:13;text-anchor:end;" transform="matrix(1 0 0 1 3036 1951)">Requires Xcode 14 or greater</text>
  <text id="descriptive-name" style="stroke:none;fill:black;font-family:sans-serif;font-size:13;text-anchor:end;" transform="matrix(1 0 0 1 3036 1969)">Generated from bird.fill</text>
  <text style="stroke:none;fill:black;font-family:sans-serif;font-size:13;text-anchor:end;" transform="matrix(1 0 0 1 3036 1987)">Typeset at 100 points</text>
  <text style="stroke:none;fill:black;font-family:sans-serif;font-size:13;" transform="matrix(1 0 0 1 263 726)">Small</text>
  <text style="stroke:none;fill:black;font-family:sans-serif;font-size:13;" transform="matrix(1 0 0 1 263 1156)">Medium</text>
  <text style="stroke:none;fill:black;font-family:sans-serif;font-size:13;" transform="matrix(1 0 0 1 263 1586)">Large</text>
 </g>
 <g id="Guides">
  <g id="H-reference" style="fill:#27AAE1;stroke:none;" transform="matrix(1 0 0 1 339 696)">
   <path d="M0.993654 0L3.63775 0L29.3281-67.1323L30.0303-67.1323L30.0303-70.459L28.1226-70.459ZM11.6885-24.4799L46.9815-24.4799L46.2315-26.7285L12.4385-26.7285ZM55.1196 0L57.7637 0L30.6382-70.459L29.4326-70.459L29.4326-67.1323Z"/>
  </g>
  <line id="Baseline-S" style="fill:none;stroke:#27AAE1;opacity:1;stroke-width:0.5;" x1="263" x2="3036" y1="696" y2="696"/>
  <line id="Capline-S" style="fill:none;stroke:#27AAE1;opacity:1;stroke-width:0.5;" x1="263" x2="3036" y1="625.541" y2="625.541"/>
  <g id="H-reference" style="fill:#27AAE1;stroke:none;" transform="matrix(1 0 0 1 339 1126)">
   <path d="M0.993654 0L3.63775 0L29.3281-67.1323L30.0303-67.1323L30.0303-70.459L28.1226-70.459ZM11.6885-24.4799L46.9815-24.4799L46.2315-26.7285L12.4385-26.7285ZM55.1196 0L57.7637 0L30.6382-70.459L29.4326-70.459L29.4326-67.1323Z"/>
  </g>
  <line id="Baseline-M" style="fill:none;stroke:#27AAE1;opacity:1;stroke-width:0.5;" x1="263" x2="3036" y1="1126" y2="1126"/>
  <line id="Capline-M" style="fill:none;stroke:#27AAE1;opacity:1;stroke-width:0.5;" x1="263" x2="3036" y1="1055.54" y2="1055.54"/>
  <g id="H-reference" style="fill:#27AAE1;stroke:none;" transform="matrix(1 0 0 1 339 1556)">
   <path d="M0.993654 0L3.63775 0L29.3281-67.1323L30.0303-67.1323L30.0303-70.459L28.1226-70.459ZM11.6885-24.4799L46.9815-24.4799L46.2315-26.7285L12.4385-26.7285ZM55.1196 0L57.7637 0L30.6382-70.459L29.4326-70.459L29.4326-67.1323Z"/>
  </g>
  <line id="Baseline-L" style="fill:none;stroke:#27AAE1;opacity:1;stroke-width:0.5;" x1="263" x2="3036" y1="1556" y2="1556"/>
  <line id="Capline-L" style="fill:none;stroke:#27AAE1;opacity:1;stroke-width:0.5;" x1="263" x2="3036" y1="1485.54" y2="1485.54"/>
  <line id="left-margin-Regular-M" style="fill:none;stroke:#00AEEF;stroke-width:0.5;opacity:1.0;" x1="1380.03" x2="1380.03" y1="1030.79" y2="1150.12"/>
  <line id="right-margin-Regular-M" style="fill:none;stroke:#00AEEF;stroke-width:0.5;opacity:1.0;" x1="1519.66" x2="1519.66" y1="1030.79" y2="1150.12"/>
 </g>
 <g id="Symbols">
  <g id="Black-L" transform="matrix(1 0 0 1 2836.62 1556)">
   <path d="M129.641-82.1869C119.532-82.1869 112.212-76.9117 106.513-64.3377C85.9491-84.2154 55.8374-100.842 25.7763-103.131C17.4519-103.646 16.3848-97.0228 16.1656-92.6365C14.1699-58.9816 39.793-29.0614 73.0232-24.7958C63.3436-4.86839 48.396 10.188 32.4228 22.8038C28.8952 25.5269 30.3276 29.7878 32.2012 32.6981C41.1672 46.8473 69.8849 57.117 87.127 51.0716C92.0986 49.3659 92.7259 46.6009 92.7259 43.2457L92.7259 20.7429C110.753 19.1133 138.443 5.36341 135.007-32.2985L134.685-35.7366C148.28-39.5667 157.562-48.4976 157.562-58.4541C157.562-70.1864 144.986-82.1869 129.641-82.1869ZM137.179-56.826C134.817-56.826 132.879-58.6864 132.879-61.0478C132.879-63.33 134.817-65.3697 137.179-65.3697C139.461-65.3697 141.421-63.33 141.421-61.0478C141.421-58.6864 139.461-56.826 137.179-56.826ZM144.019-46.7805L171.232-42.7803C177.361-41.9081 180.138-50.5249 173.967-53.1844L149.368-63.663ZM122.025-91.4705C113.319-106.122 102.321-117.058 88.741-124.936C81.7618-128.921 74.6705-126.203 72.6276-118.245C71.1777-112.533 70.0494-107.073 69.4805-101.593C82.1607-95.7883 93.9102-88.2846 104.159-79.8926C109.111-86.0799 115.074-89.8985 122.025-91.4705Z"/>
  </g>
  <g id="Heavy-L" transform="matrix(1 0 0 1 2541.61 1556)">
   <path d="M127.484-80.9709C117.558-80.9709 110.328-75.7622 104.732-63.1636C84.8105-82.6883 54.9353-99.3468 25.0945-101.613C17.4276-102.087 16.3755-96.0712 16.17-91.8747C14.1616-58.6272 39.7114-29.3127 73.0034-25.4799C63.4722-5.20982 48.6172 10.3845 32.9989 23.2195C29.7813 25.7798 31.009 29.6718 32.7823 32.4221C41.3408 45.8661 68.6441 55.2784 85.4522 49.3973C90.0062 47.8185 90.6419 45.3447 90.6419 42.1263L90.6419 19.2462C108.46 17.8488 136.083 4.76667 132.348-32.1932L131.932-36.0566C145.393-39.6947 154.516-48.4261 154.516-57.9605C154.516-69.2688 142.354-80.9709 127.484-80.9709ZM134.767-56.5162C132.459-56.5162 130.584-58.322 130.584-60.6294C130.584-62.8619 132.459-64.8475 134.767-64.8475C136.999-64.8475 138.91-62.8619 138.91-60.6294C138.91-58.322 136.999-56.5162 134.767-56.5162ZM142.272-46.9146L168.316-43.1124C173.959-42.313 176.541-50.3265 170.838-52.7907L147.299-62.7915ZM119.739-89.7508C111.176-104.402 100.33-115.281 86.7766-123.093C80.3467-126.769 73.85-124.237 71.9709-116.992C70.4178-111.054 69.2807-105.276 68.7841-99.4685C81.1384-93.7344 92.5543-86.3552 102.435-78.1689C107.248-84.3514 113.037-88.1512 119.739-89.7508Z"/>
  </g>
  <g id="Bold-L" transform="matrix(1 0 0 1 2247.02 1556)">
   <path d="M124.892-79.517C115.256-79.517 108.156-74.4896 102.564-61.7486C83.5234-80.798 53.8807-97.562 24.2195-99.805C17.4193-100.226 16.3677-95.0147 16.1776-91.0786C14.139-58.3085 39.604-29.8214 73.0027-26.4594C63.6857-5.91563 48.9235 10.4813 33.6166 23.6523C30.7832 25.9905 31.7499 29.4215 33.4001 31.9796C41.4814 44.5998 67.1222 53.0262 83.4073 47.345C87.4167 45.9349 88.075 43.8297 88.075 40.7803L88.075 17.4166C105.759 16.3111 133.282 4.02152 129.134-32.07L128.58-36.5082C141.902-39.9156 150.825-48.3861 150.825-57.3683C150.825-68.1539 139.186-79.517 124.892-79.517ZM131.86-56.1991C129.629-56.1991 127.838-57.9358 127.838-60.1666C127.838-62.3302 129.629-64.2393 131.86-64.2393C134.023-64.2393 135.865-62.3302 135.865-60.1666C135.865-57.9358 134.023-56.1991 131.86-56.1991ZM140.262-47.1208L164.682-43.6018C169.71-42.8945 172.025-50.1179 166.92-52.3288L144.86-61.6561ZM117.008-87.5701C108.607-102.288 97.9228-113.135 84.3409-120.9C78.6245-124.17 72.9027-121.898 71.231-115.567C69.525-109.322 68.3727-103.063 67.9756-96.766C79.96-91.0941 90.976-83.8462 100.381-75.9061C105.062-82.1555 110.636-85.9397 117.008-87.5701Z"/>
  </g>
  <g id="Semibold-L" transform="matrix(1 0 0 1 1951.78 1556)">
   <path d="M123.105-78.5147C113.669-78.5147 106.659-73.6123 101.07-60.773C82.6362-79.4948 53.1536-96.3316 23.6163-98.5586C17.4135-98.9424 16.3623-94.2864 16.1829-90.5299C14.1233-58.0887 39.53-30.1721 73.0022-27.1346C63.8328-6.40221 49.1347 10.548 34.0425 23.9507C31.4739 26.1357 32.2606 29.249 33.8261 31.6745C41.5784 43.7268 66.073 51.4735 81.9976 45.9301C85.6314 44.6364 86.3054 42.7852 86.3054 39.8524L86.3054 16.1554C103.896 15.2511 131.351 3.50781 126.918-31.9851L126.27-36.8196C139.495-40.0679 148.281-48.3586 148.281-56.96C148.281-67.3854 137.001-78.5147 123.105-78.5147ZM129.855-55.9805C127.677-55.9805 125.945-57.6696 125.945-59.8476C125.945-61.9637 127.677-63.82 129.855-63.82C131.972-63.82 133.766-61.9637 133.766-59.8476C133.766-57.6696 131.972-55.9805 129.855-55.9805ZM138.876-47.263L162.177-43.9391C166.782-43.2954 168.911-49.974 164.22-52.0104L143.178-60.8733ZM115.125-86.0668C106.836-100.831 96.2634-111.656 82.6617-119.388C77.4373-122.378 72.2497-120.286 70.7209-114.584C68.9095-108.128 67.7466-101.537 67.4182-94.9029C79.1476-89.2739 89.8879-82.1166 98.9651-74.3461C103.555-80.6417 108.981-84.4151 115.125-86.0668Z"/>
  </g>
  <g id="Medium-L" transform="matrix(1 0 0 1 1656.18 1556)">
   <path d="M121.75-77.7547C112.466-77.7547 105.524-72.9471 99.9365-60.0333C81.9634-78.5067 52.6023-95.3987 23.1589-97.6135C17.4092-97.9692 16.3582-93.7341 16.1869-90.1138C14.1115-57.9221 39.4739-30.438 73.0018-27.6466C63.9444-6.77115 49.2949 10.5986 34.3654 24.177C31.9976 26.2458 32.6479 29.1182 34.1491 31.4432C41.6519 43.0649 65.2775 50.2963 80.9287 44.8573C84.2778 43.6518 84.9636 41.9933 84.9636 39.1489L84.9636 15.199C102.484 14.4473 129.887 3.1183 125.238-31.9207L124.517-37.0556C137.671-40.1834 146.351-48.3377 146.351-56.6504C146.351-66.8026 135.345-77.7547 121.75-77.7547ZM128.336-55.8147C126.198-55.8147 124.509-57.4677 124.509-59.6057C124.509-61.6857 126.198-63.502 128.336-63.502C130.416-63.502 132.174-61.6857 132.174-59.6057C132.174-57.4677 130.416-55.8147 128.336-55.8147ZM137.825-47.3708L160.277-44.1949C164.561-43.5994 166.551-49.865 162.172-51.769L141.903-60.2797ZM113.698-84.9269C105.493-99.7265 95.0053-110.535 81.3884-118.242C76.5371-121.02 71.7545-119.063 70.3341-113.839C68.4428-107.222 67.272-100.38 66.9956-93.4902C78.5316-87.8937 89.0628-80.8051 97.8913-73.1633C102.412-79.4938 107.726-83.2591 113.698-84.9269Z"/>
  </g>
  <g id="Regular-L" transform="matrix(1 0 0 1 1360.92 1556)">
   <path d="M119.983-76.7634C110.896-76.7634 104.043-72.0795 98.4583-59.0685C81.0858-77.2179 51.8832-94.1818 22.5623-96.3808C17.4035-96.6999 16.3529-93.0138 16.1921-89.571C14.096-57.7047 39.4007-30.7848 73.0013-28.3144C64.09-7.25239 49.5038 10.6646 34.7865 24.4721C32.6807 26.3894 33.153 28.9476 34.5704 31.1415C41.7477 42.2016 64.2398 48.7607 79.5345 43.4581C82.5122 42.3675 83.2134 40.9603 83.2134 38.2312L83.2134 13.9516C100.642 13.3989 127.978 2.61024 123.046-31.8368L122.232-37.3636C135.29-40.334 143.835-48.3105 143.835-56.2466C143.835-66.0425 133.184-76.7634 119.983-76.7634ZM126.354-55.5985C124.268-55.5985 122.637-57.2043 122.637-59.2902C122.637-61.3232 124.268-63.0873 126.354-63.0873C128.387-63.0873 130.098-61.3232 130.098-59.2902C130.098-57.2043 128.387-55.5985 126.354-55.5985ZM136.455-47.5114L157.8-44.5286C161.665-43.9959 163.471-49.7227 159.501-51.4541L140.239-59.5055ZM111.836-83.4401C103.741-98.2854 93.3642-109.072 79.7277-116.747C75.3629-119.247 71.1087-117.468 69.8296-112.867C67.834-106.041 66.6528-98.8709 66.4443-91.6476C77.7282-86.0935 87.9867-79.0944 96.4908-71.6205C100.922-77.9966 106.088-81.7512 111.836-83.4401Z"/>
  </g>
  <g id="Light-L" transform="matrix(1 0 0 1 1065.83 1556)">
   <path d="M118.704-76.0955C110.228-76.0955 103.585-72.1749 97.1987-58.3433C80.9904-75.9201 51.5588-93.3802 21.7607-95.5983C17.5371-95.8602 16.372-93.071 16.2111-89.9718C14.0006-58.2582 39.2861-32.4071 73.154-29.8412C64.5862-9.56171 49.9236 9.78666 34.5957 24.2431C32.757 25.8741 33.0003 28.0887 34.3413 30.1872C41.366 40.9992 63.2856 47.3675 78.3131 42.1793C80.7373 41.2796 81.5339 40.1778 81.5339 37.5632L81.5339 12.8447C99.669 12.5209 126.832 2.05676 121.329-31.7986L120.285-38.0315C133.42-40.8875 141.812-48.5968 141.812-55.9603C141.812-65.4127 131.581-76.0955 118.704-76.0955ZM124.865-55.8084C122.894-55.8084 121.358-57.357 121.358-59.3283C121.358-61.266 122.894-62.9156 124.865-62.9156C126.803-62.9156 128.419-61.266 128.419-59.3283C128.419-57.357 126.803-55.8084 124.865-55.8084ZM136.054-47.9122L155.147-45.3683C158.516-44.9119 159.96-49.8182 156.524-51.3014L139.342-58.3604ZM110.595-81.6079C102.519-96.9303 92.0855-107.946 78.0291-115.812C74.3704-117.873 70.8987-116.476 69.7914-112.696C67.5286-105.488 66.3093-97.4204 66.2344-89.3192C77.4801-83.6506 87.5477-76.5943 95.5938-69.2348C100.196-76.1262 105.21-79.919 110.595-81.6079Z"/>
  </g>
  <g id="Thin-L" transform="matrix(1 0 0 1 771.264 1556)">
   <path d="M117.013-75.212C109.345-75.212 102.979-72.3011 95.5327-57.3841C80.8642-74.2037 51.1296-92.3201 20.7006-94.5634C17.7137-94.7495 16.3972-93.1467 16.2364-90.5019C13.8744-58.9902 39.1347-34.5526 73.3559-31.8605C65.2425-12.616 50.479 8.62554 34.3432 23.9402C32.858 25.1926 32.7984 26.9528 34.0384 28.9251C40.8612 39.4089 62.0235 45.5248 76.6976 40.4881C78.3898 39.8408 79.3126 39.1429 79.3126 36.6797L79.3126 11.3806C98.3817 11.3598 125.318 1.32475 119.057-31.7481L117.711-38.915C130.946-41.6195 139.136-48.9754 139.136-55.5816C139.136-64.5797 129.461-75.212 117.013-75.212ZM122.896-56.0861C121.076-56.0861 119.667-57.559 119.667-59.3788C119.667-61.1902 121.076-62.6884 122.896-62.6884C124.708-62.6884 126.197-61.1902 126.197-59.3788C126.197-57.559 124.708-56.0861 122.896-56.0861ZM135.524-48.4422L151.638-46.479C154.351-46.1236 155.315-49.9444 152.586-51.0995L138.156-56.8459ZM108.954-79.1847C100.904-95.1382 90.3943-106.457 75.7826-114.575C73.0579-116.056 70.6211-115.163 69.7409-112.468C67.1248-104.756 65.8549-95.502 65.9567-86.2397C77.152-80.4196 86.9671-73.2876 94.4074-66.0796C99.2371-73.6525 104.049-77.4958 108.954-79.1847Z"/>
  </g>
  <g id="Ultralight-L" transform="matrix(1 0 0 1 475.652 1556)">
   <path d="M116.147-74.7595C108.892-74.7595 102.669-72.3657 94.6794-56.8928C80.7996-73.3245 50.9099-91.7771 20.1576-94.0333C17.8043-94.1807 16.4102-93.1855 16.2493-90.7734C13.8098-59.3651 39.0571-35.6516 73.4593-32.8948C65.5786-14.1803 50.7634 8.03082 34.214 23.785C32.9097 24.8435 32.695 26.3711 33.8833 28.2787C40.6026 38.5944 61.377 44.581 75.8701 39.6219C77.1874 39.1039 78.1749 38.6129 78.1749 36.2272L78.1749 10.6308C97.7223 10.7651 124.542 0.949818 117.893-31.7222L116.392-39.3675C129.679-41.9944 137.766-49.1693 137.766-55.3877C137.766-64.153 128.375-74.7595 116.147-74.7595ZM121.888-56.2283C120.146-56.2283 118.801-57.6624 118.801-59.4047C118.801-61.1514 120.146-62.572 121.888-62.572C123.635-62.572 125.06-61.1514 125.06-59.4047C125.06-57.6624 123.635-56.2283 121.888-56.2283ZM135.252-48.7138L149.841-47.0478C152.217-46.7441 152.936-50.009 150.569-50.9961L137.548-56.0702ZM108.114-77.9435C100.077-94.2202 89.528-105.694 74.6319-113.942C72.3856-115.125 70.4789-114.491 69.7151-112.352C66.9179-104.381 65.6222-94.5194 65.8145-84.6624C76.9839-78.7648 86.6698-71.5939 93.7997-64.4635C98.7458-72.3855 103.455-76.2547 108.114-77.9435Z"/>
  </g>
  <g id="Black-M" transform="matrix(1 0 0 1 2857.18 1126)">
   <path d="M102.119-72.5638C94.2124-72.5638 88.4929-68.5234 83.879-58.6916C67.554-74.3175 43.9909-87.2383 20.4472-89.0344C13.5596-89.461 12.7047-83.929 12.523-80.4142C10.9722-54.0108 30.884-30.4546 56.6119-26.765C49.0316-11.7269 37.3612-0.330567 24.5983 9.34308C21.6352 11.5538 22.8897 15.1255 24.4172 17.5047C31.6931 29.0392 55.0799 37.7066 68.7749 32.8973C72.9104 31.4927 73.4023 29.1416 73.4023 26.4401L73.4023 9.27101C87.6435 7.84001 109.131-3.34261 106.647-33.0441L106.448-35.4378C117.106-38.5546 124.413-45.6092 124.413-53.6079C124.413-63.0154 114.371-72.5638 102.119-72.5638ZM108.149-52.2559C106.289-52.2559 104.746-53.7364 104.746-55.5969C104.746-57.3947 106.289-59.0059 108.149-59.0059C109.947-59.0059 111.496-57.3947 111.496-55.5969C111.496-53.7364 109.947-52.2559 108.149-52.2559ZM113.025-44.1176L134.807-40.9077C139.907-40.1797 142.176-47.263 137.065-49.4576L117.378-57.852ZM96.3339-80.0314C89.4699-91.4468 80.8106-99.9997 70.2096-106.186C64.426-109.479 58.5271-107.266 56.8269-100.599C55.756-96.3155 54.8843-92.2373 54.3995-88.1536C64.4983-83.5813 73.862-77.6529 82.0564-70.99C86.036-75.8576 90.7836-78.8372 96.3339-80.0314Z"/>
  </g>
  <g id="Heavy-M" transform="matrix(1 0 0 1 2561.98 1126)">
   <path d="M100.128-71.4368C92.3443-71.4368 86.6933-67.3908 82.255-57.6108C66.4497-72.9444 43.139-85.8508 19.8548-87.6225C13.5236-88.0145 12.6937-82.9934 12.5255-79.6325C10.9729-53.6133 30.8147-30.5506 56.5784-27.2929C49.1116-11.8476 37.5387-0.057414 25.1791 9.77054C22.4943 11.8486 23.5699 15.0913 25.0064 17.323C31.898 28.1909 53.9549 36.0378 67.2503 31.3785C71.0287 30.0803 71.5199 27.9857 71.5199 25.4074L71.5199 7.90998C85.4919 6.68484 106.929-3.87489 104.207-32.9447L103.937-35.689C114.457-38.6287 121.622-45.5128 121.622-53.1519C121.622-62.1765 111.946-71.4368 100.128-71.4368ZM105.929-51.9337C104.111-51.9337 102.62-53.3661 102.62-55.1843C102.62-56.9424 104.111-58.5113 105.929-58.5113C107.687-58.5113 109.196-56.9424 109.196-55.1843C109.196-53.3661 107.687-51.9337 105.929-51.9337ZM111.354-44.2117L132.201-41.1549C136.871-40.4911 138.984-47.0602 134.281-49.0868L115.438-57.1057ZM94.2139-78.5194C87.4871-89.8908 78.9819-98.3667 68.4459-104.47C63.1342-107.502 57.7444-105.436 56.1884-99.3898C55.0414-94.9208 54.1646-90.6147 53.7381-86.2921C63.5218-81.7987 72.577-75.9975 80.454-69.5251C84.2814-74.3404 88.8738-77.2982 94.2139-78.5194Z"/>
  </g>
  <g id="Bold-M" transform="matrix(1 0 0 1 2266.96 1126)">
   <path d="M97.9016-70.176C90.2545-70.176 84.6802-66.1238 80.4383-56.4017C65.2145-71.4084 42.186-84.2987 19.192-86.0432C13.4833-86.3964 12.6815-81.9469 12.5284-78.758C10.9737-53.1687 30.7373-30.6581 56.541-27.8835C49.201-11.9827 37.7373 0.248146 25.8288 10.2487C23.4554 12.1784 24.3309 15.0531 25.6654 17.1197C32.1272 27.242 52.6965 34.1709 65.5448 29.6795C68.9238 28.5004 69.4141 26.6927 69.4141 24.2522L69.4141 6.38748C83.085 5.39261 104.466-4.47034 101.477-32.8334L101.128-35.97C111.493-38.7117 118.5-45.405 118.5-52.6417C118.5-61.238 109.234-70.176 97.9016-70.176ZM103.445-51.5732C101.674-51.5732 100.243-52.9519 100.243-54.7227C100.243-56.4364 101.674-57.958 103.445-57.958C105.158-57.958 106.623-56.4364 106.623-54.7227C106.623-52.9519 105.158-51.5732 103.445-51.5732ZM109.485-44.317L129.286-41.4315C133.475-40.8394 135.413-46.8333 131.167-48.672L113.269-56.2708ZM91.8423-76.8279C85.2692-88.1502 76.9362-96.5398 66.473-102.552C61.6892-105.292 56.8688-103.388 55.4743-98.0376C54.2419-93.3607 53.3594-88.7995 52.9982-84.2097C62.4295-79.8047 71.1396-74.1456 78.6615-67.8863C82.3187-72.6432 86.7375-75.5766 91.8423-76.8279Z"/>
  </g>
  <g id="Semibold-M" transform="matrix(1 0 0 1 1971.41 1126)">
   <path d="M96.3667-69.3069C88.8138-69.3069 83.2924-65.2504 79.1859-55.5682C64.3629-70.3494 41.529-83.2287 18.7351-84.9543C13.4556-85.2808 12.6731-81.2254 12.5303-78.1551C10.9742-52.8622 30.6839-30.7321 56.5152-28.2906C49.2627-12.0758 37.8742 0.458798 26.2767 10.5784C24.118 12.4057 24.8555 15.0267 26.1198 16.9795C32.2852 26.5878 51.8289 32.8839 64.3691 28.5082C67.4726 27.4112 67.9624 25.8013 67.9624 23.4558L67.9624 5.33788C81.4257 4.50176 102.769-4.88083 99.5958-32.7567L99.1912-36.1637C109.45-38.7689 116.348-45.3306 116.348-52.29C116.348-60.591 107.364-69.3069 96.3667-69.3069ZM101.732-51.3247C99.9939-51.3247 98.6043-52.6663 98.6043-54.4045C98.6043-56.0875 99.9939-57.5765 101.732-57.5765C103.415-57.5765 104.849-56.0875 104.849-54.4045C104.849-52.6663 103.415-51.3247 101.732-51.3247ZM108.197-44.3896L127.277-41.6222C131.134-41.0796 132.951-46.6769 129.02-48.386L111.773-55.6953ZM90.2074-75.6618C83.7401-86.9503 75.5259-95.2804 65.1128-101.229C60.6929-103.768 56.2652-101.976 54.9819-97.1054C53.6908-92.2851 52.8043-87.5481 52.4881-82.7741C61.6764-78.43 70.1486-72.8689 77.4258-66.7566C80.9656-71.4731 85.2647-74.3897 90.2074-75.6618Z"/>
  </g>
  <g id="Medium-M" transform="matrix(1 0 0 1 1675.58 1126)">
   <path d="M95.2028-68.6478C87.7214-68.6478 82.2401-64.5882 78.2362-54.9362C63.7172-69.5465 41.0308-82.4174 18.3886-84.1287C13.4345-84.435 12.6667-80.6783 12.5318-77.698C10.9746-52.6297 30.6434-30.7883 56.4957-28.5993C49.3094-12.1464 37.978 0.618523 26.6164 10.8283C24.6203 12.5781 25.2532 15.0067 26.4643 16.8733C32.405 26.0918 51.1711 31.908 63.4776 27.6201C66.3723 26.5853 66.8617 25.1255 66.8617 22.8519L66.8617 4.54203C80.1676 3.82628 101.481-5.19209 98.169-32.6986L97.7228-36.3106C107.901-38.8122 114.716-45.2743 114.716-52.0233C114.716-60.1004 105.946-68.6478 95.2028-68.6478ZM100.434-51.1363C98.7201-51.1363 97.3616-52.4498 97.3616-54.1632C97.3616-55.823 98.7201-57.2873 100.434-57.2873C102.093-57.2873 103.504-55.823 103.504-54.1632C103.504-52.4498 102.093-51.1363 100.434-51.1363ZM107.22-44.4446L125.753-41.7668C129.358-41.2616 131.084-46.5583 127.392-48.1692L110.639-55.2589ZM88.9677-74.7776C82.5807-86.0405 74.4566-94.3255 64.0815-100.226C59.9376-102.612 55.8075-100.905 54.6086-96.3986C53.2729-91.4696 52.3835-86.5993 52.1013-81.6856C61.1055-77.3877 69.3972-71.9009 76.4888-65.8999C79.9396-70.586 84.148-73.4897 88.9677-74.7776Z"/>
  </g>
  <g id="Regular-M" transform="matrix(1 0 0 1 1380.03 1126)">
   <path d="M93.6847-67.7882C86.2965-67.7882 80.8675-63.7243 76.9976-54.1119C62.875-68.4992 40.381-81.3591 17.9367-83.0519C13.4071-83.3318 12.6584-79.9648 12.5338-77.1017C10.9752-52.3266 30.5906-30.8616 56.4702-29.002C49.3704-12.2385 38.1134 0.826859 27.0593 11.1543C25.2756 12.8029 25.772 14.9806 26.9136 16.7347C32.5612 25.4448 50.3131 30.6351 62.3148 26.4617C64.9371 25.5081 65.426 24.2439 65.426 22.0642L65.426 3.50396C78.5265 2.94522 99.8021-5.59807 96.308-32.6227L95.8076-36.5022C105.881-38.8688 112.588-45.2007 112.588-51.6754C112.588-59.4605 104.097-67.7882 93.6847-67.7882ZM98.7399-50.8906C97.0587-50.8906 95.7407-52.1673 95.7407-53.8485C95.7407-55.478 97.0587-56.91 98.7399-56.91C100.369-56.91 101.75-55.478 101.75-53.8485C101.75-52.1673 100.369-50.8906 98.7399-50.8906ZM105.946-44.5164L123.766-41.9554C127.043-41.4991 128.649-46.4036 125.269-47.8864L109.16-54.6897ZM87.3507-73.6243C81.0685-84.8537 73.0618-93.0799 62.7363-98.9175C58.9523-101.105 55.2105-99.5089 54.1217-95.4766C52.7279-90.4058 51.8345-85.3617 51.5968-80.2658C60.3607-76.0281 68.4171-70.6382 75.2666-64.7826C78.6014-69.4288 82.6914-72.3159 87.3507-73.6243Z"/>
  </g>
  <g id="Light-M" transform="matrix(1 0 0 1 1084.77 1126)">
   <path d="M92.5382-67.1894C85.6977-67.1894 80.4568-63.8099 75.8683-53.4616C62.7894-67.3357 40.0901-80.6404 17.2181-82.3503C13.5268-82.5789 12.6755-80.0161 12.5509-77.4611C10.8896-52.8228 30.4879-32.316 56.607-30.3709C49.8153-14.3089 38.4898 0.0397561 26.8882 10.949C25.344 12.3409 25.6351 14.2106 26.7083 15.8791C32.219 24.3668 49.4575 29.386 61.2197 25.3153C63.3458 24.5327 63.9202 23.5423 63.9202 21.4653L63.9202 2.51152C77.6539 2.15812 98.7754-6.09429 94.768-32.5885L94.0623-37.1011C104.204-39.365 110.774-45.4574 110.774-51.4188C110.774-58.8958 102.66-67.1894 92.5382-67.1894ZM97.4053-51.0788C95.8267-51.0788 94.5943-52.3042 94.5943-53.8828C94.5943-55.4267 95.8267-56.756 97.4053-56.756C98.9492-56.756 100.244-55.4267 100.244-53.8828C100.244-52.3042 98.9492-51.0788 97.4053-51.0788ZM105.586-44.8757L121.387-42.7082C124.22-42.3205 125.501-46.4892 122.599-47.7495L108.356-53.663ZM86.2385-71.9817C79.9734-83.6388 71.9154-92.0704 61.2135-98.079C58.0626-99.8727 55.0223-98.6191 54.0874-95.3226C52.4541-89.9096 51.5265-84.0613 51.4086-78.1783C60.1382-73.8379 68.0235-68.3967 74.4624-62.6437C77.9512-67.7519 81.9043-70.6733 86.2385-71.9817Z"/>
  </g>
  <g id="Thin-M" transform="matrix(1 0 0 1 789.981 1126)">
   <path d="M91.022-66.3973C84.9056-66.3973 79.9137-63.923 74.3746-52.6017C62.6763-65.7968 39.7054-79.69 16.2676-81.4225C13.6853-81.5831 12.6981-80.084 12.5735-77.9363C10.7765-53.4791 30.3522-34.2396 56.7881-32.1813C50.4037-17.0472 38.9877-1.00125 26.6619 10.6774C25.4346 11.7299 25.4541 13.1922 26.4367 14.7476C31.7664 22.941 48.326 27.734 59.7713 23.799C61.2412 23.2428 61.9287 22.6145 61.9287 20.6733L61.9287 1.19895C76.4997 1.11711 97.4176-6.75057 92.7313-32.5433L91.7539-37.8932C101.986-40.0213 108.375-45.7969 108.375-51.0793C108.375-58.149 100.759-66.3973 91.022-66.3973ZM95.6401-51.3277C94.1973-51.3277 93.0781-52.4853 93.0781-53.928C93.0781-55.3588 94.1973-56.5523 95.6401-56.5523C97.0708-56.5523 98.2524-55.3588 98.2524-53.928C98.2524-52.4853 97.0708-51.3277 95.6401-51.3277ZM105.111-45.351L118.242-43.704C120.486-43.4067 121.337-46.6023 119.069-47.5685L107.292-52.3052ZM84.7675-69.8091C78.525-82.0321 70.3991-90.7352 59.1994-96.9701C56.8858-98.2433 54.7733-97.4423 54.0422-95.1189C52.092-89.2533 51.1191-82.3413 51.1597-75.4173C59.844-70.9412 67.503-65.4321 73.3987-59.8149C77.0912-65.5341 80.8633-68.5007 84.7675-69.8091Z"/>
  </g>
  <g id="Ultralight-M" transform="matrix(1 0 0 1 494.255 1126)">
   <path d="M90.2454-65.9916C84.4999-65.9916 79.6355-63.981 73.6096-52.1612C62.6183-65.0086 39.5083-79.2031 15.7808-80.9472C13.7664-81.0731 12.7097-80.1188 12.5851-78.1797C10.7185-53.8152 30.2826-35.2249 56.8808-33.1086C50.7051-18.4498 39.2427-1.53445 26.546 10.5384C25.4809 11.4169 25.3614 12.6706 26.2976 14.168C31.5346 22.2108 47.7464 26.8878 59.0295 23.0224C60.1632 22.5821 60.9087 22.1392 60.9087 20.2676L60.9087 0.526654C75.9086 0.583909 96.7221-7.08672 91.6881-32.5201L90.5716-38.2988C100.85-40.3574 107.146-45.9707 107.146-50.9054C107.146-57.7665 99.7852-65.9916 90.2454-65.9916ZM94.736-51.4552C93.3627-51.4552 92.3014-52.578 92.3014-53.9512C92.3014-55.324 93.3627-56.448 94.736-56.448C96.1088-56.448 97.2323-55.324 97.2323-53.9512C97.2323-52.578 96.1088-51.4552 94.736-51.4552ZM104.868-45.5944L116.631-44.214C118.573-43.9631 119.204-46.6603 117.261-47.4757L106.748-51.6097ZM84.0141-68.6964C77.7832-81.2091 69.6225-90.0513 58.1677-96.4022C56.283-97.4087 54.6458-96.8396 54.019-95.0146C51.9065-88.9172 50.9105-81.4604 51.0322-74.0032C59.6934-69.4575 67.2364-63.9136 72.854-58.366C76.6508-64.3982 80.3301-67.388 84.0141-68.6964Z"/>
  </g>
  <g id="Black-S" transform="matrix(1 0 0 1 2873.29 696)">
   <path d="M80.5664-64.7949C74.3652-64.7949 69.873-61.6699 66.1621-53.9062C53.2715-66.2109 34.7168-76.3672 16.1621-77.7832C10.6445-78.125 9.96094-73.6816 9.81445-70.8984C8.59375-50.0977 24.2188-31.543 44.3848-28.5156C38.4277-16.8945 29.248-8.00781 19.0918-0.439453C16.6992 1.31836 17.7246 4.19922 18.9453 6.10352C24.7559 15.332 43.457 22.3633 54.2969 18.5547C57.6172 17.4316 58.0078 15.5273 58.0078 13.3789L58.0078 0C69.2871-1.17188 86.1328-10.1074 84.2285-33.5449L84.082-35.3516C92.4805-37.8418 98.2422-43.4082 98.2422-49.7559C98.2422-57.2266 90.2832-64.7949 80.5664-64.7949ZM85.3516-48.6816C83.8867-48.6816 82.666-49.8535 82.666-51.3184C82.666-52.7344 83.8867-54.0039 85.3516-54.0039C86.7676-54.0039 87.9883-52.7344 87.9883-51.3184C87.9883-49.8535 86.7676-48.6816 85.3516-48.6816ZM89.0625-42.1875L106.299-39.6484C110.4-39.0625 112.207-44.7266 108.105-46.4844L92.5293-53.125ZM76.0742-70.7031C70.6543-79.6875 63.8184-86.4258 55.4688-91.3086C50.8301-93.9453 46.0938-92.1875 44.7266-86.8164C43.8965-83.4961 43.2129-80.3223 42.8223-77.1484C50.8301-73.5352 58.252-68.8477 64.7461-63.5742C67.9199-67.4316 71.6797-69.7754 76.0742-70.7031Z"/>
  </g>
  <g id="Heavy-S" transform="matrix(1 0 0 1 2577.69 696)">
   <path d="M79.0106-63.9075C72.844-63.9075 68.3864-60.6903 64.9175-53.065C52.338-65.1853 34.0253-75.2724 15.7472-76.6653C10.5984-76.9841 9.94941-72.8749 9.81445-70.1839C8.60527-49.6943 24.1727-31.4392 44.3387-28.7922C38.4393-16.7332 29.3518-7.6736 19.6104-0.0476213C17.4253 1.62952 18.3239 4.26837 19.4754 6.05742C24.9748 14.7443 42.6042 21.0956 53.1329 17.4022C56.2112 16.3483 56.5903 14.6284 56.5903 12.5722L56.5903-1.0372C67.5584-2.05926 84.3811-10.4993 82.3385-33.4643L82.1574-35.4899C90.4291-37.8418 96.0871-43.293 96.0871-49.3986C96.0871-56.5812 88.3932-63.9075 79.0106-63.9075ZM83.6229-48.382C82.1811-48.382 80.995-49.5193 80.995-50.9611C80.995-52.3541 82.1811-53.6005 83.6229-53.6005C85.0159-53.6005 86.2135-52.3541 86.2135-50.9611C86.2135-49.5193 85.0159-48.382 83.6229-48.382ZM87.6796-42.2221L104.374-39.7637C108.165-39.2238 109.879-44.5422 106.066-46.1847L90.9735-52.6179ZM74.4032-69.6198C69.0985-78.512 62.4009-85.1581 54.155-89.9487C49.839-92.4126 45.4484-90.7354 44.1849-85.8023C43.3203-82.3667 42.6367-79.1007 42.2806-75.8231C50.0234-72.2905 57.2032-67.7183 63.4784-62.5946C66.5024-66.3483 70.1469-68.669 74.4032-69.6198Z"/>
  </g>
  <g id="Bold-S" transform="matrix(1 0 0 1 2282.21 696)">
   <path d="M77.2705-62.915C71.1426-62.915 66.7236-59.5947 63.5254-52.124C51.2939-64.0381 33.252-74.0479 15.2832-75.415C10.5469-75.708 9.93652-71.9727 9.81445-69.3848C8.61816-49.2432 24.1211-31.3232 44.2871-29.1016C38.4521-16.5527 29.4678-7.2998 20.1904 0.390625C18.2373 1.97754 18.9941 4.3457 20.0684 6.00586C25.2197 14.0869 41.6504 19.6777 51.8311 16.1133C54.6387 15.1367 55.0049 13.623 55.0049 11.6699L55.0049-2.19727C65.625-3.05176 82.4219-10.9375 80.2246-33.374L80.0049-35.6445C88.1348-37.8418 93.6768-43.1641 93.6768-48.999C93.6768-55.8594 86.2793-62.915 77.2705-62.915ZM81.6895-48.0469C80.2734-48.0469 79.126-49.1455 79.126-50.5615C79.126-51.9287 80.2734-53.1494 81.6895-53.1494C83.0566-53.1494 84.2285-51.9287 84.2285-50.5615C84.2285-49.1455 83.0566-48.0469 81.6895-48.0469ZM86.1328-42.2607L102.222-39.8926C105.664-39.4043 107.275-44.3359 103.784-45.8496L89.2334-52.0508ZM72.5342-68.4082C67.3584-77.1973 60.8154-83.7402 52.6855-88.4277C48.7305-90.6982 44.7266-89.1113 43.5791-84.668C42.6758-81.1035 41.9922-77.7344 41.6748-74.3408C49.1211-70.8984 56.0303-66.4551 62.0605-61.499C64.917-65.1367 68.4326-67.4316 72.5342-68.4082Z"/>
  </g>
  <g id="Semibold-S" transform="matrix(1 0 0 1 1986.36 696)">
   <path d="M76.0708-62.2308C69.9695-62.2308 65.5772-58.8394 62.5656-51.4753C50.5741-63.2472 32.7188-73.2036 14.9633-74.553C10.5113-74.8282 9.92764-71.3506 9.81445-68.8338C8.62705-48.9321 24.0855-31.2433 44.2516-29.3148C38.461-16.4283 29.5478-7.04209 20.5903 0.692773C18.7972 2.21748 19.4563 4.39902 20.4771 5.97031C25.3886 13.6337 40.9928 18.7002 50.9335 15.2246C53.5545 14.3014 53.9118 12.9299 53.9118 11.0479L53.9118-2.99707C64.292-3.73604 81.0711-11.2396 78.7672-33.3118L78.5208-35.7512C86.5529-37.8418 92.0149-43.0752 92.0149-48.7235C92.0149-55.3617 84.8219-62.2308 76.0708-62.2308ZM80.3564-47.8158C78.9582-47.8158 77.8374-48.8878 77.8374-50.286C77.8374-51.6354 78.9582-52.8384 80.3564-52.8384C81.7059-52.8384 82.86-51.6354 82.86-50.286C82.86-48.8878 81.7059-47.8158 80.3564-47.8158ZM85.0664-42.2874L100.738-39.9814C103.94-39.5287 105.48-44.1938 102.211-45.6186L88.0337-51.6598ZM71.2456-67.5729C66.1587-76.2908 59.7224-82.7627 51.6725-87.3791C47.9662-89.5163 44.2289-87.9916 43.1614-83.8859C42.2314-80.2326 41.5479-76.7924 41.2571-73.3188C48.499-69.9387 55.2216-65.5842 61.083-60.7437C63.8239-64.3014 67.2507-66.5785 71.2456-67.5729Z"/>
  </g>
  <g id="Medium-S" transform="matrix(1 0 0 1 1690.29 696)">
   <path d="M75.1611-61.7119C69.0801-61.7119 64.708-58.2666 61.8379-50.9834C50.0283-62.6475 32.3145-72.5635 14.7207-73.8994C10.4844-74.1611 9.9209-70.8789 9.81445-68.416C8.63379-48.6963 24.0586-31.1826 44.2246-29.4766C38.4678-16.334 29.6084-6.84668 20.8936 0.921875C19.2217 2.39941 19.8066 4.43945 20.7871 5.94336C25.5166 13.29 40.4941 17.959 50.2529 14.5508C52.7324 13.668 53.083 12.4043 53.083 10.5762L53.083-3.60352C63.2812-4.25488 80.0469-11.4688 77.6621-33.2646L77.3955-35.832C85.3535-37.8418 90.7549-43.0078 90.7549-48.5146C90.7549-54.9844 83.7168-61.7119 75.1611-61.7119ZM79.3457-47.6406C77.9609-47.6406 76.8604-48.6924 76.8604-50.0771C76.8604-51.4131 77.9609-52.6025 79.3457-52.6025C80.6816-52.6025 81.8223-51.4131 81.8223-50.0771C81.8223-48.6924 80.6816-47.6406 79.3457-47.6406ZM84.2578-42.3076L99.6123-40.0488C102.633-39.623 104.119-44.0859 101.019-45.4434L87.124-51.3633ZM70.2686-66.9395C65.249-75.6035 58.8936-82.0215 50.9043-86.584C47.3867-88.6201 43.8516-87.1426 42.8447-83.293C41.8945-79.5723 41.2109-76.0781 40.9404-72.5439C48.0273-69.2109 54.6084-64.9238 60.3418-60.1709C62.9951-63.668 66.3545-65.9316 70.2686-66.9395Z"/>
  </g>
  <g id="Regular-S" transform="matrix(1 0 0 1 1394.42 696)">
   <path d="M73.9746-61.0352C67.9199-61.0352 63.5742-57.5195 60.8887-50.3418C49.3164-61.8652 31.7871-71.7285 14.4043-73.0469C10.4492-73.291 9.91211-70.2637 9.81445-67.8711C8.64258-48.3887 24.0234-31.1035 44.1895-29.6875C38.4766-16.2109 29.6875-6.5918 21.2891 1.2207C19.7754 2.63672 20.2637 4.49219 21.1914 5.9082C25.6836 12.8418 39.8438 16.9922 49.3652 13.6719C51.6602 12.8418 52.002 11.7188 52.002 9.96094L52.002-4.39453C61.9629-4.93164 78.7109-11.7676 76.2207-33.2031L75.9277-35.9375C83.7891-37.8418 89.1113-42.9199 89.1113-48.2422C89.1113-54.4922 82.2754-61.0352 73.9746-61.0352ZM78.0273-47.4121C76.6602-47.4121 75.5859-48.4375 75.5859-49.8047C75.5859-51.123 76.6602-52.2949 78.0273-52.2949C79.3457-52.2949 80.4688-51.123 80.4688-49.8047C80.4688-48.4375 79.3457-47.4121 78.0273-47.4121ZM83.2031-42.334L98.1445-40.1367C100.928-39.7461 102.344-43.9453 99.4629-45.2148L85.9375-50.9766ZM68.9941-66.1133C64.0625-74.707 57.8125-81.0547 49.9023-85.5469C46.6309-87.4512 43.3594-86.0352 42.4316-82.5195C41.4551-78.7109 40.7715-75.1465 40.5273-71.5332C47.4121-68.2617 53.8086-64.0625 59.375-59.4238C61.9141-62.8418 65.1855-65.0879 68.9941-66.1133Z"/>
  </g>
  <g id="Light-S" transform="matrix(1 0 0 1 1099 696)">
   <path d="M72.9605-60.5054C67.3901-60.5054 63.2109-57.5952 59.8897-49.7666C49.2407-60.8359 31.5298-71.0928 13.7686-72.4263C10.5552-72.625 9.92725-70.3091 9.82959-68.189C8.5669-48.8276 23.9326-32.3901 44.3105-30.8984C38.8701-18.0425 30.0205-7.28808 21.1377 1.03906C19.8359 2.22803 20.1426 3.81104 21.0098 5.15137C25.3809 11.8882 39.0869 15.8872 48.3965 12.6577C50.2525 11.979 50.6699 11.0981 50.6699 9.43116L50.6699-5.27245C61.1909-5.62792 77.8027-12.2065 74.8584-33.1729L74.3838-36.4673C82.3057-38.2808 87.5068-43.147 87.5068-48.0151C87.5068-53.9927 81.0039-60.5054 72.9605-60.5054ZM76.8467-47.5786C75.5703-47.5786 74.5718-48.5586 74.5718-49.835C74.5718-51.0776 75.5703-52.1587 76.8467-52.1587C78.0894-52.1587 79.1367-51.0776 79.1367-49.835C79.1367-48.5586 78.0894-47.5786 76.8467-47.5786ZM82.8853-42.6519L96.0405-40.8027C98.4302-40.4727 99.5586-44.021 97.1016-45.0938L85.2261-50.0684ZM68.0103-64.6602C63.0938-73.6323 56.7983-80.1616 48.5552-84.8052C45.8438-86.3613 43.1929-85.2481 42.4014-82.3833C41.2129-78.272 40.499-73.9961 40.3608-69.6865C47.2153-66.3242 53.4605-62.0796 58.6636-57.5318C61.3389-61.3584 64.4893-63.6348 68.0103-64.6602Z"/>
  </g>
  <g id="Thin-S" transform="matrix(1 0 0 1 803.991 696)">
   <path d="M71.6192-59.8047C66.6895-59.8047 62.7305-57.6953 58.5684-49.0059C49.1406-59.4746 31.1895-70.252 12.9277-71.6055C10.6953-71.7442 9.94727-70.3691 9.84961-68.6094C8.4668-49.4082 23.8125-34.0918 44.4707-32.5C39.3906-20.4648 30.4609-8.20897 20.9375 0.798831C19.916 1.68751 19.9824 2.91017 20.7695 4.1504C24.9805 10.627 38.086 14.4258 47.1153 11.3164C48.3907 10.8379 48.9082 10.2774 48.9082 8.73048L48.9082-6.43358C60.1699-6.54882 76.6016-12.7871 73.0567-33.1328L72.3418-37.168C80.3438-38.8613 85.3848-43.4473 85.3848-47.7148C85.3848-53.332 79.3223-59.8047 71.6192-59.8047ZM75.2852-47.7988C74.1289-47.7988 73.2305-48.7187 73.2305-49.875C73.2305-51.0176 74.1289-51.9785 75.2852-51.9785C76.4278-51.9785 77.375-51.0176 77.375-49.875C77.375-48.7187 76.4278-47.7988 75.2852-47.7988ZM82.4648-43.0723L93.2579-41.6836C95.127-41.4336 95.8751-44.1211 93.9786-44.9336L84.2852-48.8672ZM66.709-62.7383C61.8125-72.211 55.457-78.9805 46.7735-83.8242C44.8027-84.9199 42.9727-84.207 42.3613-82.2031C40.8926-77.6914 40.1387-72.4746 40.1406-67.2442C46.9551-63.7618 53-59.4571 57.7227-55.0293C60.5781-59.3965 63.5684-61.7129 66.709-62.7383Z"/>
  </g>
  <g id="Ultralight-S" transform="matrix(1 0 0 1 508.151 696)">
   <path d="M70.9322-59.4458C66.3306-59.4458 62.4844-57.7466 57.8916-48.6162C49.0894-58.7774 31.0151-69.8213 12.4971-71.1851C10.7671-71.293 9.95752-70.3999 9.85986-68.8247C8.41553-49.7056 23.751-34.9633 44.5527-33.3203C39.6572-21.7055 30.6865-8.68065 20.835 0.675786C19.957 1.41065 19.9004 2.44875 20.6465 3.63771C24.7754 9.98098 37.5733 13.6773 46.459 10.6294C47.437 10.2534 48.0059 9.85695 48.0059 8.37159L48.0059-7.0283C59.647-7.02049 75.9863-13.0845 72.1338-33.1123L71.2959-37.5268C79.3389-39.1587 84.2979-43.6011 84.2979-47.561C84.2979-52.9937 78.461-59.4458 70.9322-59.4458ZM74.4854-47.9116C73.3907-47.9116 72.5435-48.8008 72.5435-49.8955C72.5435-50.9868 73.3907-51.8862 74.4854-51.8862C75.5767-51.8862 76.4727-50.9868 76.4727-49.8955C76.4727-48.8008 75.5767-47.9116 74.4854-47.9116ZM82.2495-43.2876L91.8326-42.1347C93.4351-41.9258 93.9883-44.1724 92.379-44.8516L83.8032-48.252ZM66.0425-61.7539C61.1563-71.4829 54.77-78.3755 45.8609-83.3218C44.2695-84.1817 42.8599-83.6738 42.3408-82.1108C40.7285-77.3941 39.9541-71.6953 40.0278-65.9932C46.8218-62.4493 52.7642-58.1138 57.2407-53.7476C60.1885-58.3916 63.0967-60.7285 66.0425-61.7539Z"/>
  </g>
 </g>
</svg>
