<svg width="48" height="48" viewBox="0 0 48 48" fill="none" xmlns="http://www.w3.org/2000/svg">
<path d="M30.0906 9.83216C28.3227 10.3134 26.8045 11.4106 25.5362 13.1237C22.9612 10.9294 19.9249 8.90821 16.6388 7.31054C16.7349 5.44339 17.0616 3.57624 17.5804 1.72833C17.984 0.149912 19.4445 -0.466056 20.9049 0.3809C24.7291 2.57529 27.727 5.63588 30.0906 9.83216ZM32.4351 12.0458C36.0863 12.0458 39.1418 14.7792 39.5262 17.5318L44.2727 19.5529C45.5795 20.1111 44.9645 21.9975 43.6962 21.805L38.3539 21.0351C37.2586 22.2863 35.4714 23.3257 33.2614 23.8454L33.4536 25.2699C34.7411 35.4141 26.8238 38.6479 21.885 38.8789V45.7701C21.885 46.5978 21.7313 47.079 20.7128 47.464C16.1968 49.0231 9.47087 47.002 7.31858 43.7104C6.89581 43.0175 6.70364 42.1897 7.37623 41.5738C11.5463 37.7047 15.7356 32.8925 18.3875 26.675C8.75985 25.9436 1.4382 17.8975 2.03392 8.60023C2.07236 7.52228 2.34139 6.2326 4.09013 6.32884C12.4879 6.96406 20.8857 11.7571 26.1704 17.1468C27.6501 13.5472 29.6871 12.0458 32.4351 12.0458ZM34.3376 18.4365C34.9525 18.4365 35.4522 17.936 35.4522 17.32C35.4522 16.7041 34.9525 16.1651 34.3376 16.1651C33.7226 16.1651 33.2038 16.7041 33.2038 17.32C33.2038 17.936 33.7226 18.4365 34.3376 18.4365Z" fill="#333333"/>
</svg>
